<svg id="Layer_1" data-name="Layer 1" xmlns="http://www.w3.org/2000/svg" viewBox="0 0 215 66"><defs><style>.cls-1{fill:#231f20;}</style></defs><title>ao_logo</title><path class="cls-1" d="M0,38c0-5.86,4.42-11.72,10-14.69l.32.64c-2.49,1.85-4.58,5-4.58,10.35,0,7.23,5.62,13.65,12.36,13.65a12.27,12.27,0,0,0,8.51-3.13l.4.56A16.25,16.25,0,0,1,13.81,52C5,52,0,46.09,0,38Z"/><path class="cls-1" d="M14.45,22.65C12,19.2,9.07,15,9.07,10.61,9.07,4.91,13.65.82,19.51.09V.82c-2.41.8-4.34,2.49-4.34,6.26,0,3.37,1.69,6,5.7,11.56L46.08,51.31H36.93Z"/><path class="cls-1" d="M23.52,16.47c2.49-1.77,3.93-3.77,3.93-8,0-4.5-1.93-7-5.22-7.63V.09C28.58.58,31.87,4,31.87,8.36S27.77,15.59,23.92,17Z"/><circle class="cls-1" cx="41.12" cy="26.02" r="4.59"/><path class="cls-1" d="M109.73,17.78l7-1V48.89a18.08,18.08,0,0,0,6.35,2.49V52a27.57,27.57,0,0,1-6.35-1V65.7h-7ZM125.4,51.39c6.51-.64,11.34-6.35,11.34-16.64,0-10-3.06-14.47-10-14.47a13.22,13.22,0,0,0-8,2.73v-.72a16.11,16.11,0,0,1,11.5-5.39c9.25,0,13.91,6.19,13.91,16.56,0,11.09-7.24,18-18.65,18.57Z"/><path class="cls-1" d="M148.39,33.94a17.08,17.08,0,0,1,15.28-17v.64c-5.79,1.45-8.2,7.48-8.2,14.15,0,10.29,5.39,15,12.38,15A15.44,15.44,0,0,0,178.3,43v.88A14.83,14.83,0,0,1,164.87,52C154.66,52,148.39,44.47,148.39,33.94ZM155,30.08l16.57-.8c0-6.51-1.93-11.09-5.15-11.66V17c8,.56,11.58,6.59,11.58,13.83H155Z"/><path class="cls-1" d="M184.16,17.78l7-.88V51.39h-7Zm22.91,9.89c0-4.42-2.09-6.83-6.91-6.83A12.54,12.54,0,0,0,193,23.09v-.56a15.47,15.47,0,0,1,11.25-5.63c6.43,0,9.81,3.94,9.81,10V51.39h-7Z"/><path class="cls-1" d="M202.14,21c-3.91-.72-9.26,1.68-11,4.21l-.14-1.1s4.69-6.64,12.6-7.19Z"/><path class="cls-1" d="M163.34,17a15.92,15.92,0,0,1,4.09.08l.11.92a6.15,6.15,0,0,0-4.75-.12Z"/><path class="cls-1" d="M119.82,21.06a28.74,28.74,0,0,0-3.1,3.36v2a7.74,7.74,0,0,1,3.09-4.1,13,13,0,0,1,4.9-1.92Z"/><path class="cls-1" d="M116.72,48.89A15.28,15.28,0,0,0,124,51.15a13.87,13.87,0,0,0,7-2l1,1.63a17.32,17.32,0,0,1-7.72,1.48,20.63,20.63,0,0,1-7.72-1.21Z"/><path class="cls-1" d="M52.81,26.06C52.81,11.67,64.15,0,78.14,0s25.32,11.67,25.32,26.06S92.12,52.12,78.14,52.12,52.81,40.46,52.81,26.06ZM78.14,51.39c9.41,0,17-8.23,17-25.32C95.18,9.2,87.55.74,78.14.74s-17,8.39-17,25.32S68.72,51.39,78.14,51.39Z"/></svg>